<svg width="33" height="33" viewBox="0 0 33 33" fill="none" xmlns="http://www.w3.org/2000/svg">
<g clip-path="url(#clip0_105_31)">
<path d="M15.0418 3.09386C15.4286 2.7072 15.9531 2.48999 16.5 2.48999C17.0469 2.48999 17.5714 2.7072 17.9582 3.09386L22.6875 7.82317V5.15636C22.6875 4.88286 22.7961 4.62056 22.9895 4.42716C23.1829 4.23376 23.4452 4.12511 23.7187 4.12511H25.7812C26.0548 4.12511 26.3171 4.23376 26.5105 4.42716C26.7038 4.62056 26.8125 4.88286 26.8125 5.15636V11.9482L31.6676 16.8012C31.7635 16.8971 31.8396 17.0109 31.8915 17.1362C31.9433 17.2615 31.97 17.3958 31.97 17.5314C31.97 17.667 31.9433 17.8012 31.8915 17.9265C31.8396 18.0518 31.7635 18.1656 31.6676 18.2615C31.5717 18.3574 31.4579 18.4334 31.3326 18.4853C31.2074 18.5372 31.0731 18.5639 30.9375 18.5639C30.8019 18.5639 30.6676 18.5372 30.5424 18.4853C30.4171 18.4334 30.3033 18.3574 30.2074 18.2615L16.5 4.55205L2.79262 18.2615C2.59898 18.4551 2.33635 18.5639 2.0625 18.5639C1.78865 18.5639 1.52601 18.4551 1.33237 18.2615C1.13873 18.0678 1.02995 17.8052 1.02995 17.5314C1.02995 17.2575 1.13873 16.9949 1.33237 16.8012L15.0418 3.09386Z" fill="#E6C120"/>
<path d="M22.8319 18.6596C22.253 18.3587 21.5937 18.2486 20.9484 18.3449C20.3032 18.4412 19.7048 18.7391 19.239 19.1959L19.1977 19.2392C18.7406 19.7048 18.4424 20.303 18.3457 20.9483C18.249 21.5936 18.3588 22.2529 18.6594 22.8321C18.0328 23.0305 17.4857 23.4233 17.0974 23.9537C16.7091 24.484 16.4998 25.1242 16.4998 25.7814C16.4998 26.4387 16.7091 27.0789 17.0974 27.6092C17.4857 28.1395 18.0328 28.5324 18.6594 28.7308C18.3074 29.4107 18.2193 30.1967 18.4119 30.9377H7.21875C6.39824 30.9377 5.61133 30.6117 5.03114 30.0315C4.45095 29.4514 4.125 28.6644 4.125 27.8439V19.167L16.5 6.79199L26.2432 16.5352C25.5148 16.4252 24.771 16.5787 24.1457 16.9681C23.5203 17.3575 23.0544 17.9573 22.8319 18.6596Z" fill="#E6C120"/>
<path d="M27.1384 19.8167L27.0497 19.5115C26.6764 18.2472 24.8861 18.2472 24.5128 19.5115L24.4241 19.8167C24.3687 20.0061 24.2716 20.1806 24.1399 20.3275C24.0081 20.4743 23.8452 20.5898 23.6629 20.6654C23.4807 20.741 23.2839 20.7747 23.0868 20.7642C22.8898 20.7537 22.6977 20.6991 22.5246 20.6046L22.2441 20.452C21.087 19.8208 19.8206 21.0872 20.4497 22.2443L20.6044 22.5248C20.6985 22.6978 20.7528 22.8898 20.7631 23.0866C20.7734 23.2833 20.7395 23.4799 20.664 23.6618C20.5884 23.8438 20.4731 24.0066 20.3264 24.1381C20.1798 24.2697 20.0056 24.3668 19.8165 24.4223L19.5112 24.5151C18.2469 24.8863 18.2469 26.6766 19.5112 27.0499L19.8165 27.1386C20.0058 27.194 20.1804 27.2911 20.3272 27.4228C20.4741 27.5546 20.5896 27.7175 20.6651 27.8998C20.7407 28.082 20.7745 28.2789 20.764 28.4759C20.7535 28.6729 20.6989 28.865 20.6044 29.0382L20.4517 29.3187C19.8206 30.4757 21.087 31.7421 22.2441 31.113L22.5246 30.9583C22.6976 30.8642 22.8896 30.8099 23.0863 30.7996C23.2831 30.7893 23.4797 30.8232 23.6616 30.8987C23.8436 30.9743 24.0063 31.0896 24.1379 31.2363C24.2695 31.3829 24.3666 31.5572 24.4221 31.7462L24.5149 32.0535C24.8861 33.3158 26.6764 33.3158 27.0497 32.0535L27.1384 31.7442C27.1942 31.5552 27.2917 31.3811 27.4236 31.2347C27.5556 31.0883 27.7186 30.9733 27.9008 30.8981C28.0829 30.823 28.2796 30.7895 28.4764 30.8003C28.6732 30.8111 28.8651 30.8658 29.0379 30.9604L29.3184 31.113C30.4755 31.7421 31.7419 30.4757 31.1128 29.3187L30.9581 29.0382C30.864 28.8651 30.8097 28.6731 30.7994 28.4764C30.7891 28.2796 30.823 28.083 30.8985 27.9011C30.9741 27.7191 31.0894 27.5564 31.236 27.4248C31.3827 27.2932 31.5569 27.1961 31.746 27.1407L32.0533 27.0499C33.3156 26.6766 33.3156 24.8863 32.0533 24.513L31.7439 24.4243C31.5549 24.3685 31.3809 24.271 31.2345 24.1391C31.0881 24.0072 30.9731 23.8441 30.8979 23.6619C30.8227 23.4798 30.7893 23.2831 30.8001 23.0863C30.8109 22.8895 30.8656 22.6977 30.9602 22.5248L31.1128 22.2443C31.7419 21.0872 30.4755 19.8208 29.3184 20.4499L29.0379 20.6046C28.8649 20.6988 28.6729 20.753 28.4762 20.7633C28.2794 20.7736 28.0828 20.7398 27.9009 20.6642C27.7189 20.5886 27.5562 20.4733 27.4246 20.3267C27.293 20.18 27.1959 20.0058 27.1404 19.8167H27.1384ZM25.7812 28.8752C25.375 28.8752 24.9727 28.7952 24.5973 28.6397C24.222 28.4842 23.8809 28.2564 23.5936 27.9691C23.3064 27.6818 23.0785 27.3407 22.923 26.9654C22.7675 26.59 22.6875 26.1877 22.6875 25.7815C22.6875 25.3752 22.7675 24.9729 22.923 24.5975C23.0785 24.2222 23.3064 23.8811 23.5936 23.5939C23.8809 23.3066 24.222 23.0787 24.5973 22.9232C24.9727 22.7677 25.375 22.6877 25.7812 22.6877C26.6018 22.6877 27.3887 23.0137 27.9689 23.5939C28.549 24.174 28.875 24.961 28.875 25.7815C28.875 26.602 28.549 27.3889 27.9689 27.9691C27.3887 28.5493 26.6018 28.8752 25.7812 28.8752Z" fill="#E6C120"/>
</g>
<defs>
<clipPath id="clip0_105_31">
<rect width="33" height="33" fill="white"/>
</clipPath>
</defs>
</svg>
