<svg width="408" height="409" viewBox="0 0 408 409" fill="none" xmlns="http://www.w3.org/2000/svg">
<path d="M304.69 203.845C360.3 203.845 405.38 158.763 405.38 103.151C405.38 47.5385 360.3 2.45599 304.69 2.45599C249.081 2.45599 204 47.5385 204 103.151C204 158.763 249.081 203.845 304.69 203.845Z" stroke="#16100D" stroke-width="3" stroke-miterlimit="10"/>
<path d="M103.146 406.544C158.756 406.544 203.836 361.462 203.836 305.849C203.836 250.237 158.756 205.155 103.146 205.155C47.5364 205.155 2.45587 250.237 2.45587 305.849C2.45587 361.462 47.5364 406.544 103.146 406.544Z" stroke="#BF2035" stroke-width="3" stroke-miterlimit="10"/>
<path d="M304.69 205.155C249.024 205.155 204 250.345 204 305.849C204 250.181 158.812 205.155 103.31 205.155C158.976 205.155 204 159.965 204 104.46C204 159.965 249.024 205.155 304.69 205.155Z" fill="#E6C120"/>
<path d="M304.69 406.544C360.3 406.544 405.38 361.462 405.38 305.849C405.38 250.237 360.3 205.155 304.69 205.155C249.081 205.155 204 250.237 204 305.849C204 361.462 249.081 406.544 304.69 406.544Z" stroke="#543A95" stroke-width="3" stroke-miterlimit="10"/>
<path d="M103.146 203.845C158.756 203.845 203.836 158.763 203.836 103.151C203.836 47.5385 158.756 2.45599 103.146 2.45599C47.5364 2.45599 2.45587 47.5385 2.45587 103.151C2.45587 158.763 47.5364 203.845 103.146 203.845Z" stroke="#2C509F" stroke-width="3" stroke-miterlimit="10"/>
</svg>
