<svg width="33" height="33" viewBox="0 0 33 33" fill="none" xmlns="http://www.w3.org/2000/svg">
<path d="M18.5625 29.9063H14.4375C14.164 29.9063 13.9017 30.0149 13.7083 30.2083C13.5149 30.4017 13.4062 30.664 13.4062 30.9375C13.4062 31.211 13.5149 31.4733 13.7083 31.6667C13.9017 31.8601 14.164 31.9688 14.4375 31.9688H18.5625C18.836 31.9688 19.0983 31.8601 19.2917 31.6667C19.4851 31.4733 19.5937 31.211 19.5937 30.9375C19.5937 30.664 19.4851 30.4017 19.2917 30.2083C19.0983 30.0149 18.836 29.9063 18.5625 29.9063ZM19.5937 26.8125H13.4062C13.1327 26.8125 12.8704 26.9212 12.677 27.1146C12.4836 27.308 12.375 27.5703 12.375 27.8438C12.375 28.1173 12.4836 28.3796 12.677 28.573C12.8704 28.7664 13.1327 28.875 13.4062 28.875H19.5937C19.8673 28.875 20.1296 28.7664 20.323 28.573C20.5164 28.3796 20.625 28.1173 20.625 27.8438C20.625 27.5703 20.5164 27.308 20.323 27.1146C20.1296 26.9212 19.8673 26.8125 19.5937 26.8125ZM23.8103 4.0406C21.8722 2.09991 19.276 1.03128 16.5 1.03128C15.1448 1.02805 13.8024 1.29259 12.5498 1.80969C11.2971 2.3268 10.159 3.08629 9.20076 4.04454C8.24251 5.00279 7.48302 6.14091 6.96591 7.39354C6.4488 8.64617 6.18427 9.98862 6.1875 11.3438C6.1875 14.3486 7.33928 17.1594 9.3457 19.055L9.62672 19.3186C10.7875 20.404 12.375 21.8909 12.375 23.2032V24.75C12.375 25.0235 12.4836 25.2858 12.677 25.4792C12.8704 25.6726 13.1327 25.7813 13.4062 25.7813H14.9531C15.0899 25.7813 15.221 25.727 15.3177 25.6303C15.4144 25.5336 15.4687 25.4024 15.4687 25.2657V17.713C15.4688 17.6088 15.4372 17.5069 15.3782 17.421C15.3191 17.335 15.2354 17.269 15.1381 17.2316C14.5426 16.9886 13.9769 16.6783 13.452 16.3067C13.3341 16.2313 13.2327 16.1328 13.154 16.017C13.0754 15.9013 13.0211 15.7707 12.9945 15.6333C12.968 15.4959 12.9696 15.3545 12.9995 15.2178C13.0293 15.081 13.0866 14.9518 13.168 14.8379C13.2494 14.7241 13.3531 14.628 13.4728 14.5554C13.5925 14.4829 13.7257 14.4356 13.8643 14.4162C14.0029 14.3968 14.144 14.4059 14.279 14.4428C14.414 14.4797 14.5401 14.5437 14.6495 14.6309C15.1265 14.9686 16.045 15.4688 16.5 15.4688C16.955 15.4688 17.8735 14.9673 18.3517 14.6309C18.5744 14.4909 18.8422 14.4413 19.1002 14.4922C19.3583 14.5431 19.5871 14.6907 19.7399 14.9048C19.8928 15.1189 19.958 15.3832 19.9223 15.6438C19.8866 15.9044 19.7527 16.1416 19.548 16.3067C19.023 16.6776 18.4573 16.9873 17.8619 17.2296C17.7646 17.267 17.6809 17.3331 17.6218 17.419C17.5628 17.505 17.5312 17.6068 17.5312 17.7111V25.2657C17.5312 25.4024 17.5856 25.5336 17.6823 25.6303C17.779 25.727 17.9101 25.7813 18.0469 25.7813H19.5937C19.8673 25.7813 20.1296 25.6726 20.323 25.4792C20.5164 25.2858 20.625 25.0235 20.625 24.75V23.2032C20.625 21.9218 22.1951 20.4362 23.3417 19.3508L23.6582 19.0504C25.722 17.0801 26.8125 14.4124 26.8125 11.3438C26.8193 9.98849 26.5575 8.64528 26.0422 7.39175C25.5269 6.13823 24.7683 4.99924 23.8103 4.0406Z" fill="#E6C120"/>
</svg>
