<svg width="271" height="313" viewBox="0 0 271 313" fill="none" xmlns="http://www.w3.org/2000/svg">
<path d="M113.137 70.0036C99.846 56.7123 79.2583 55.7993 67.1754 67.8822C79.2939 55.7637 78.3063 35.1725 65.0541 21.9203C78.3454 35.2116 98.9331 36.1245 111.016 24.0416C98.9331 36.1245 99.846 56.7123 113.137 70.0036Z" fill="#E6C120" fill-opacity="0.2"/>
<path d="M203.647 160.513C190.356 147.222 169.768 146.309 157.685 158.392C169.804 146.273 168.816 125.682 155.564 112.43C168.855 125.721 189.443 126.634 201.526 114.551C189.443 126.634 190.356 147.222 203.647 160.513Z" fill="#E6C120" fill-opacity="0.2"/>
<path d="M118.794 245.366C105.503 232.075 84.915 231.162 72.8321 243.245C84.9507 231.126 83.963 210.535 70.7108 197.283C84.0021 210.574 104.59 211.487 116.673 199.404C104.59 211.487 105.503 232.075 118.794 245.366Z" fill="#E6C120" fill-opacity="0.2"/>
<path d="M158.392 115.258C145.101 101.967 124.513 101.054 112.43 113.137C124.549 101.019 123.561 80.4274 110.309 67.1752C123.6 80.4665 144.188 81.3794 156.271 69.2965C144.188 81.3794 145.101 101.967 158.392 115.258Z" fill="#E6C120" fill-opacity="0.2"/>
<path d="M248.902 205.768C235.611 192.477 215.023 191.564 202.94 203.647C215.059 191.528 214.071 170.937 200.819 157.685C214.11 170.976 234.698 171.889 246.781 159.806C234.698 171.889 235.611 192.477 248.902 205.768Z" fill="#E6C120" fill-opacity="0.2"/>
<path d="M73.5392 200.111C60.2479 186.82 39.6601 185.907 27.5772 197.99C39.6958 185.871 38.7081 165.28 25.4559 152.028C38.7472 165.319 59.3349 166.232 71.4178 154.149C59.3349 166.232 60.2479 186.82 73.5392 200.111Z" fill="#E6C120" fill-opacity="0.2"/>
<path d="M164.049 290.621C150.758 277.329 130.17 276.417 118.087 288.499C130.206 276.381 129.218 255.79 115.966 242.537C129.257 255.829 149.845 256.742 161.928 244.659C149.845 256.742 150.758 277.329 164.049 290.621Z" fill="#E6C120" fill-opacity="0.2"/>
<path d="M69.65 113.491C56.3587 100.2 35.9297 99.1279 24.0417 111.016C35.9647 99.0929 34.819 78.6598 21.5668 65.4076C34.8581 78.6989 55.2872 79.7705 67.1752 67.8824C55.2872 79.7705 56.3587 100.2 69.65 113.491Z" fill="#E6C120" fill-opacity="0.2"/>
<path d="M160.16 204.001C146.869 190.709 126.439 189.638 114.551 201.526C126.475 189.603 125.329 169.17 112.077 155.917C125.368 169.209 145.797 170.28 157.685 158.392C145.797 170.28 146.869 190.709 160.16 204.001Z" fill="#E6C120" fill-opacity="0.2"/>
<path d="M74.9537 289.207C61.6624 275.915 41.0747 275.002 28.9918 287.085C41.1103 274.967 40.1227 254.376 26.8705 241.123C40.1618 254.415 60.7495 255.328 72.8324 243.245C60.7495 255.328 61.6624 275.915 74.9537 289.207Z" fill="#E6C120" fill-opacity="0.2"/>
<path d="M114.905 158.746C101.614 145.454 81.1846 144.383 69.2965 156.271C81.2196 144.348 80.0739 123.915 66.8217 110.662C80.113 123.954 100.542 125.025 112.43 113.137C100.542 125.025 101.614 145.454 114.905 158.746Z" fill="#E6C120" fill-opacity="0.2"/>
<path d="M205.415 249.255C192.123 235.964 171.694 234.893 159.806 246.781C171.729 234.858 170.584 214.424 157.331 201.172C170.623 214.464 191.052 215.535 202.94 203.647C191.052 215.535 192.123 235.964 205.415 249.255Z" fill="#E6C120" fill-opacity="0.2"/>
</svg>
