<svg width="33" height="33" viewBox="0 0 33 33" fill="none" xmlns="http://www.w3.org/2000/svg">
<path d="M29.8057 7.66219L19.4932 29.3184C19.4371 29.444 19.3564 29.5571 19.2559 29.651C19.1555 29.7449 19.0372 29.8178 18.9081 29.8654C18.7791 29.9129 18.6418 29.9342 18.5044 29.9279C18.367 29.9215 18.2323 29.8878 18.1081 29.8287C17.9839 29.7695 17.8729 29.6861 17.7814 29.5834C17.69 29.4806 17.62 29.3607 17.5756 29.2305C17.5312 29.1003 17.5133 28.9625 17.523 28.8253C17.5326 28.6881 17.5696 28.5543 17.6318 28.4316L21.3494 20.625H4.12499C3.92442 20.6251 3.72817 20.5668 3.56027 20.4571C3.39237 20.3474 3.2601 20.1911 3.17966 20.0074C3.09922 19.8236 3.0741 19.6204 3.10738 19.4226C3.14066 19.2249 3.23088 19.0411 3.36702 18.8938L8.85327 12.9512L3.4276 7.9793C3.27427 7.83889 3.16696 7.65542 3.11975 7.45294C3.07253 7.25047 3.08762 7.03846 3.16303 6.84471C3.23844 6.65096 3.37064 6.48453 3.54231 6.36725C3.71398 6.24997 3.91708 6.18731 4.12499 6.1875H28.875C29.0491 6.18756 29.2203 6.23168 29.3727 6.31576C29.5252 6.39984 29.6538 6.52114 29.7467 6.66836C29.8396 6.81557 29.8938 6.98391 29.9041 7.15769C29.9144 7.33146 29.8805 7.50502 29.8057 7.66219Z" fill="#E6C120"/>
</svg>
