<svg width="33" height="33" viewBox="0 0 33 33" fill="none" xmlns="http://www.w3.org/2000/svg">
<path d="M2.75 12.045C2.75 8.31188 2.75 6.44463 3.95862 5.2855C5.16587 4.125 7.1115 4.125 11 4.125H22C25.8885 4.125 27.8341 4.125 29.0414 5.2855C30.25 6.44463 30.25 8.3105 30.25 12.045V13.365C30.25 17.0981 30.25 18.9654 29.0414 20.1245C27.8341 21.285 25.8885 21.285 22 21.285H17.5312V24.53L25.0759 26.9459C25.2022 26.9832 25.3196 27.0456 25.4213 27.1293C25.523 27.213 25.6068 27.3163 25.6677 27.433C25.7287 27.5498 25.7655 27.6776 25.776 27.8088C25.7866 27.9401 25.7706 28.0722 25.729 28.1971C25.6351 28.4506 25.4464 28.6578 25.2026 28.7747C24.9589 28.8917 24.6793 28.9094 24.4227 28.8241L16.5 26.2886L8.57587 28.8241C8.31953 28.9094 8.04008 28.8916 7.79658 28.7746C7.55308 28.6576 7.36461 28.4505 7.271 28.1971C7.22944 28.0722 7.21345 27.9401 7.22397 27.8088C7.2345 27.6776 7.27132 27.5498 7.33226 27.433C7.3932 27.3163 7.477 27.213 7.57868 27.1293C7.68036 27.0456 7.79784 26.9832 7.92413 26.9459L15.4688 24.5314V21.285H11C7.1115 21.285 5.16587 21.285 3.95862 20.1245C2.75 18.9654 2.75 17.0995 2.75 13.365V12.045Z" fill="#E6C120"/>
</svg>
