<svg width="33" height="33" viewBox="0 0 33 33" fill="none" xmlns="http://www.w3.org/2000/svg">
<path fill-rule="evenodd" clip-rule="evenodd" d="M2.2 2.19995V6.59995H0V8.79995H2.2V33H4.4V8.79995H13.2V13.2H9.9C9.60826 13.2 9.32847 13.3158 9.12218 13.5221C8.91589 13.7284 8.8 14.0082 8.8 14.3V27.5C8.8 27.7917 8.91589 28.0715 9.12218 28.2778C9.32847 28.4841 9.60826 28.6 9.9 28.6H31.9C32.1917 28.6 32.4715 28.4841 32.6778 28.2778C32.8841 28.0715 33 27.7917 33 27.5V14.3C33 14.0082 32.8841 13.7284 32.6778 13.5221C32.4715 13.3158 32.1917 13.2 31.9 13.2H28.6V8.79995H33V6.59995H4.4V2.19995H2.2ZM15.4 13.2V8.79995H26.4V13.2H15.4Z" fill="#E6C120"/>
</svg>
